<?xml version="1.0" encoding="UTF-8" standalone="no"?>
<!DOCTYPE svg PUBLIC "-//W3C//DTD SVG 1.1//EN"
 "http://www.w3.org/Graphics/SVG/1.1/DTD/svg11.dtd">
<!-- Generated by graphviz version 2.40.1 (20161225.0304)
 -->
<!-- Title: %3 Pages: 1 -->
<svg width="409pt" height="152pt"
 viewBox="0.00 0.00 409.20 152.36" xmlns="http://www.w3.org/2000/svg" xmlns:xlink="http://www.w3.org/1999/xlink">
<g id="graph0" class="graph" transform="scale(1 1) rotate(0) translate(4 148.3611)">
<title>%3</title>
<polygon fill="#ffffff" stroke="transparent" points="-4,4 -4,-148.3611 405.2,-148.3611 405.2,4 -4,4"/>
<!-- Win -->
<g id="node1" class="node">
<title>Win</title>
<ellipse fill="none" stroke="#000000" cx="27" cy="-66.3611" rx="27" ry="18"/>
<text text-anchor="middle" x="27" y="-62.6611" font-family="Times,serif" font-size="14.00" fill="#000000">Win</text>
</g>
<!-- qDraw -->
<g id="node2" class="node">
<title>qDraw</title>
<ellipse fill="#000000" stroke="#000000" cx="92.8" cy="-66.3611" rx="1.8" ry="1.8"/>
</g>
<!-- Win&#45;&gt;qDraw -->
<g id="edge1" class="edge">
<title>Win&#45;&gt;qDraw</title>
<path fill="none" stroke="#000000" d="M54.1433,-66.3611C63.3476,-66.3611 73.1723,-66.3611 80.6138,-66.3611"/>
<polygon fill="#000000" stroke="#000000" points="80.7858,-69.8612 90.7858,-66.3611 80.7857,-62.8612 80.7858,-69.8612"/>
</g>
<!-- 5 -->
<g id="node3" class="node">
<title>5</title>
<ellipse fill="none" stroke="#000000" cx="187.6" cy="-33.3611" rx="27" ry="18"/>
<text text-anchor="middle" x="187.6" y="-29.6611" font-family="Times,serif" font-size="14.00" fill="#000000">5</text>
</g>
<!-- qDraw&#45;&gt;5 -->
<g id="edge2" class="edge">
<title>qDraw&#45;&gt;5</title>
<path fill="none" stroke="#000000" d="M94.1087,-65.0514C97.1041,-62.1303 104.8036,-55.05 112.6,-51.3611 124.5149,-45.7235 138.356,-41.7601 150.8803,-39.0168"/>
<polygon fill="#000000" stroke="#000000" points="151.9001,-42.3823 161.0198,-36.9895 150.5276,-35.5181 151.9001,-42.3823"/>
<text text-anchor="middle" x="127.6" y="-55.1611" font-family="Times,serif" font-size="14.00" fill="#000000">p=1/13</text>
</g>
<!-- ... -->
<g id="node4" class="node">
<title>...</title>
<ellipse fill="none" stroke="#000000" cx="187.6" cy="-87.3611" rx="27" ry="18"/>
<text text-anchor="middle" x="187.6" y="-83.6611" font-family="Times,serif" font-size="14.00" fill="#000000">...</text>
</g>
<!-- qDraw&#45;&gt;... -->
<g id="edge3" class="edge">
<title>qDraw&#45;&gt;...</title>
<path fill="none" stroke="#000000" d="M94.78,-66.7997C102.1917,-68.4416 129.0456,-74.3902 151.9749,-79.4695"/>
<polygon fill="#000000" stroke="#000000" points="151.3004,-82.9048 161.8207,-81.6505 152.8144,-76.0705 151.3004,-82.9048"/>
<text text-anchor="middle" x="127.6" y="-80.1611" font-family="Times,serif" font-size="14.00" fill="#000000">p=1/13</text>
</g>
<!-- q5Hi -->
<g id="node5" class="node">
<title>q5Hi</title>
<ellipse fill="#000000" stroke="#000000" cx="279.4" cy="-75.3611" rx="1.8" ry="1.8"/>
</g>
<!-- 5&#45;&gt;q5Hi -->
<g id="edge4" class="edge">
<title>5&#45;&gt;q5Hi</title>
<path fill="none" stroke="#000000" d="M210.2921,-43.7431C228.6895,-52.1602 253.8372,-63.6657 268.1726,-70.2244"/>
<polygon fill="#000000" stroke="#000000" points="266.9959,-73.5349 277.5455,-74.5126 269.9082,-67.1695 266.9959,-73.5349"/>
<text text-anchor="middle" x="246.1" y="-69.1611" font-family="Times,serif" font-size="14.00" fill="#000000">higher</text>
</g>
<!-- q5Lo -->
<g id="node7" class="node">
<title>q5Lo</title>
<ellipse fill="#000000" stroke="#000000" cx="279.4" cy="-22.3611" rx="1.8" ry="1.8"/>
</g>
<!-- 5&#45;&gt;q5Lo -->
<g id="edge7" class="edge">
<title>5&#45;&gt;q5Lo</title>
<path fill="none" stroke="#000000" d="M214.6465,-30.1202C232.0996,-28.0289 253.9545,-25.4101 267.2866,-23.8126"/>
<polygon fill="#000000" stroke="#000000" points="267.7866,-27.2778 277.2991,-22.6128 266.9537,-20.3275 267.7866,-27.2778"/>
<text text-anchor="middle" x="246.1" y="-32.1611" font-family="Times,serif" font-size="14.00" fill="#000000">lower</text>
</g>
<!-- q5Hi&#45;&gt;Win -->
<g id="edge6" class="edge">
<title>q5Hi&#45;&gt;Win</title>
<path fill="none" stroke="#000000" d="M277.944,-76.668C271.2974,-82.5341 242.9395,-106.4908 214.6,-114.3611 158.846,-129.8449 93.2603,-102.8099 56.2666,-83.4311"/>
<polygon fill="#000000" stroke="#000000" points="57.5228,-80.1315 47.0615,-78.4551 54.1941,-86.2894 57.5228,-80.1315"/>
<text text-anchor="middle" x="127.6" y="-133.1611" font-family="Times,serif" font-size="14.00" fill="#000000">p=8/13</text>
<text text-anchor="middle" x="127.6" y="-118.1611" font-family="Times,serif" font-size="14.00" fill="#000000">R=1.4</text>
</g>
<!-- Lose -->
<g id="node6" class="node">
<title>Lose</title>
<ellipse fill="none" stroke="#000000" cx="374.2" cy="-48.3611" rx="27" ry="18"/>
<text text-anchor="middle" x="374.2" y="-44.6611" font-family="Times,serif" font-size="14.00" fill="#000000">Lose</text>
</g>
<!-- q5Hi&#45;&gt;Lose -->
<g id="edge5" class="edge">
<title>q5Hi&#45;&gt;Lose</title>
<path fill="none" stroke="#000000" d="M281.38,-74.7972C288.8844,-72.6599 316.32,-64.8459 339.4329,-58.2631"/>
<polygon fill="#000000" stroke="#000000" points="340.6723,-61.5494 349.3311,-55.444 338.7549,-54.8171 340.6723,-61.5494"/>
<text text-anchor="middle" x="314.2" y="-88.1611" font-family="Times,serif" font-size="14.00" fill="#000000">p=4/13</text>
<text text-anchor="middle" x="314.2" y="-73.1611" font-family="Times,serif" font-size="14.00" fill="#000000">R=&#45;1</text>
</g>
<!-- q5Lo&#45;&gt;Win -->
<g id="edge8" class="edge">
<title>q5Lo&#45;&gt;Win</title>
<path fill="none" stroke="#000000" d="M277.7006,-21.7149C264.5589,-16.8162 177.9015,13.7119 112.6,-7.3611 89.1964,-14.9135 66.4574,-31.1394 50.3049,-44.6669"/>
<polygon fill="#000000" stroke="#000000" points="47.758,-42.2424 42.4899,-51.4347 52.3406,-47.534 47.758,-42.2424"/>
<text text-anchor="middle" x="127.6" y="-26.1611" font-family="Times,serif" font-size="14.00" fill="#000000">p=4/13</text>
<text text-anchor="middle" x="127.6" y="-11.1611" font-family="Times,serif" font-size="14.00" fill="#000000">R=3</text>
</g>
<!-- q5Lo&#45;&gt;Lose -->
<g id="edge9" class="edge">
<title>q5Lo&#45;&gt;Lose</title>
<path fill="none" stroke="#000000" d="M281.3467,-22.0703C288.1112,-21.1284 311.1664,-18.4944 329.2,-23.3611 335.0593,-24.9423 340.9764,-27.4438 346.5084,-30.2659"/>
<polygon fill="#000000" stroke="#000000" points="344.9384,-33.3978 355.3766,-35.2124 348.3483,-27.2844 344.9384,-33.3978"/>
<text text-anchor="middle" x="314.2" y="-42.1611" font-family="Times,serif" font-size="14.00" fill="#000000">p=8/13</text>
<text text-anchor="middle" x="314.2" y="-27.1611" font-family="Times,serif" font-size="14.00" fill="#000000">R=&#45;1</text>
</g>
</g>
</svg>
